<svg xmlns="http://www.w3.org/2000/svg" viewBox="270 -225 1440 883" enable-background="new 270 -225 1440 883"><style type="text/css">.st0{fill:url(#SVGID_1_);} .st1{opacity:.08;fill:#FFFFFF;} .st2{opacity:0.15;fill:#C25847;} .st3{opacity:0.1;fill:#FFFFFF;}</style><defs><linearGradient id="SVGID_1_" gradientUnits="userSpaceOnUse" x1="990" y1="-291.884" x2="990" y2="656.269"><stop offset="0" stop-color="#e1563f"/><stop offset="1" stop-color="#E76D5A"/></linearGradient></defs><path class="st0" d="M270-225h1440v883H270z"/><path id="top-left" class="st1" d="M1706.7-225H270v65.1C422.1-90.1 663.3-45 935-45c348.9 0 647.7-74.4 771.7-180z"/><path id="bottom-left" class="st2" d="M586 300c-111.9 0-218.6 7.7-316 21.5V658h1125.1c15.6-22.1 23.9-45.2 23.9-69 0-159.6-372.9-289-833-289z"/><path id="bottom-right" class="st2" d="M776.3 658H1710V540c-75.4-7.8-155.3-12-238-12-290.7 0-546.7 51.7-695.7 130z"/><path id="top-right" class="st3" d="M1710-100.7V-225H745.6C892.1-142.2 1155.5-87 1456-87c88.6 0 173.9-4.8 254-13.7z"/></svg>
