<?xml version="1.0" encoding="UTF-8"?>
<svg width="216px" height="131px" viewBox="0 0 216 131" version="1.1" xmlns="http://www.w3.org/2000/svg" xmlns:xlink="http://www.w3.org/1999/xlink">
    <!-- Generator: Sketch 50.2 (55047) - http://www.bohemiancoding.com/sketch -->
    <title>Group</title>
    <desc>Created with Sketch.</desc>
    <defs></defs>
    <g id="Page-1" stroke="none" stroke-width="1" fill="none" fill-rule="evenodd">
        <g id="Artboard-1">
            <g id="Group" transform="translate(0.000000, -1.000000)">
                <polygon id="Base-Shape" fill="#E15D44" points="131.076 0.9992 0 52.1552 5.083 103.9792 150.758 132.1582 215.982 100.2882 203.821 57.6082"></polygon>
                <path d="M159.7715,100.9987 L199.5155,100.9987 L159.7715,109.7527 L159.7715,100.9987 Z M99.8164,100.9987 L99.8164,109.9637 L59.1154,100.9987 L99.8164,100.9987 Z M137.1553,74.7409 C137.1553,74.7409 136.3813,71.9929 139.2693,66.7089 C142.1573,61.4239 144.4143,64.3129 144.4143,64.3129 C144.4143,64.3129 146.8783,66.9909 144.0613,71.0079 C141.2423,75.0209 137.1553,74.7409 137.1553,74.7409 Z M114.9633,78.5439 C111.6513,87.2129 103.6203,83.6879 103.6203,83.6879 C103.6203,83.6879 102.7043,80.5879 105.3113,71.9219 C107.9173,63.2579 114.0473,66.6369 114.0473,66.6369 C114.0473,66.6369 118.2743,69.8799 114.9633,78.5439 M108.9743,42.2609 C108.9743,42.2609 113.9783,29.2269 115.1753,35.5699 C116.3703,41.9089 104.6763,60.7909 104.6763,60.7909 C104.8173,56.5639 108.9743,42.2609 108.9743,42.2609 M37.4633,74.7409 C37.6753,66.3569 43.1703,62.6929 45.0733,64.5259 C46.9763,66.3569 46.2703,70.3019 42.6773,72.7679 C39.0853,75.2339 37.4633,74.7409 37.4633,74.7409 M189.0093,73.3489 C189.2923,76.1659 187.6003,77.1299 187.6003,77.1299 C187.6003,77.1299 180.6243,82.3449 175.2723,80.7939 C169.9173,79.2439 169.6353,69.5789 169.6353,69.5789 L169.1403,69.5789 L163.7163,84.4709 C163.7163,84.4709 161.5343,91.9299 158.2923,90.5919 C155.0513,89.2519 155.1213,85.4449 155.1213,85.4449 C155.1213,85.4449 150.0503,91.2849 140.7483,90.5819 C132.6123,89.9659 129.9833,83.2959 129.9833,83.2959 C129.9833,83.2959 124.5453,87.3329 109.2523,90.3429 C102.4113,91.0879 97.5613,86.9099 97.5613,86.9099 C96.9263,87.5459 92.8403,89.4979 92.8403,89.4979 C92.8403,89.4979 86.9933,91.9999 84.7383,87.9149 C82.4843,83.8319 83.9633,70.5789 83.9633,70.5789 L83.5403,70.5789 C83.5403,70.5789 80.1583,77.8409 78.3963,84.0409 C76.6363,90.2409 74.4503,90.2379 74.4503,90.2379 C74.4503,90.2379 70.4363,90.5879 69.5203,87.2069 C68.6043,83.8249 71.0013,71.2809 71.0013,71.2809 L70.6473,71.3399 C70.6473,71.3399 70.4363,70.9719 67.3383,77.5269 C62.0533,90.3479 60.7853,90.8769 57.7553,90.3209 C54.7243,89.7629 54.5853,85.8779 54.5853,85.8779 L50.4293,88.0639 C50.4293,88.0639 40.2843,92.1659 35.0023,88.1519 C31.4833,85.4779 30.2793,82.5789 29.8643,79.5789 L29.8663,79.5789 C29.8663,79.5789 25.3673,79.6309 22.4783,78.5029 C19.5883,77.3739 22.5003,74.2469 22.5003,74.2469 C22.5003,74.2469 23.3883,72.8399 25.0783,74.2469 C26.7703,75.6539 29.9263,75.0199 29.9263,75.0199 C30.2073,72.7989 30.6763,69.8679 32.0533,66.7729 C34.9423,60.2899 39.3663,58.0999 42.9593,58.0289 C46.5513,57.9589 49.0893,58.9329 51.2733,62.0329 C56.1343,74.0819 38.3103,80.1809 38.3103,80.1809 C38.3103,80.1809 37.8163,83.3349 42.6773,83.2649 C47.5393,83.1969 54.9363,77.9099 54.9363,77.9099 C55.2893,73.8949 58.1073,61.2829 58.8813,59.3829 C59.6563,57.4789 62.6163,57.8319 62.6163,57.8319 C62.6163,57.8319 64.9413,57.3379 65.3633,59.8029 C65.7853,62.2699 63.6733,72.2739 63.6733,72.2739 L64.0243,72.6989 C64.2363,71.7109 69.3793,63.1159 69.3793,63.1159 C69.3793,63.1159 72.3383,57.9729 76.8483,58.1829 C81.3563,58.3939 76.6363,72.2059 76.6363,72.2059 L76.9883,72.6279 L77.3413,71.9929 C77.9053,70.4399 84.5973,60.2979 84.5973,60.2979 C84.5973,60.2979 87.1343,57.3379 89.4583,58.0419 C91.7823,58.7469 91.9243,59.8029 92.0663,61.7779 C92.2063,63.7489 90.2343,75.4429 90.2343,75.4429 C90.2343,75.4429 89.1063,83.1229 91.6423,82.9819 C94.1793,82.8439 96.9263,80.1659 96.9263,80.1659 C96.9263,80.1659 98.8993,65.0879 100.2383,52.6189 C101.5773,40.1479 107.3543,31.7639 107.3543,31.7639 C107.3543,31.7639 109.0433,29.1569 113.5083,27.3939 C116.4493,26.3579 119.6553,27.0479 121.1623,33.4549 C124.3333,46.9099 110.0313,62.8329 110.0313,62.8329 C110.0313,62.8329 113.8353,56.7749 118.6273,59.6639 C129.1943,66.2839 120.5293,80.8709 120.5293,80.8709 C123.6293,79.8839 129.1943,76.1499 129.1943,76.1499 C129.1943,76.1499 129.3073,74.5399 129.3713,74.1709 C131.2623,63.3379 137.7503,59.4279 138.9643,58.5129 C140.2213,57.5689 151.3163,53.3219 151.8093,64.8059 C152.3023,76.2899 137.9313,80.3059 137.9313,80.3059 C137.9313,80.3059 139.2013,83.6189 144.4833,82.7719 C149.7663,81.9279 155.8253,76.7839 155.8253,76.7839 C156.0363,72.0639 159.1383,60.7909 159.7713,59.1699 C160.4053,57.5499 164.2803,57.4789 164.7043,58.3939 C165.2673,60.2269 164.7723,68.2589 164.7723,68.2589 L165.1953,68.1169 C166.7473,63.5389 169.9863,59.9469 169.9863,59.9469 C169.9863,59.9469 172.5933,57.4099 174.7073,58.0259 C176.8203,58.6449 176.0473,66.0059 176.0473,66.0059 C176.0473,66.0059 174.9213,74.0409 178.5113,74.3939 C182.1043,74.7449 186.1913,71.5789 186.1913,71.5789 C186.1913,71.5789 188.7263,70.5279 189.0093,73.3489 Z M117.0039,104.0075 C116.8959,104.5785 116.5639,104.9105 116.0069,105.0025 L114.7789,105.0025 C114.1909,104.9425 113.8599,104.6165 113.7829,104.0295 L113.7829,103.1045 C113.6739,101.9445 113.0409,101.2945 111.8819,101.1565 C110.6619,101.2945 109.9969,101.9445 109.8889,103.1045 L109.8889,110.5415 C109.9969,111.7475 110.6619,112.4045 111.8819,112.5135 C113.0409,112.4045 113.6739,111.7475 113.7829,110.5415 L113.7829,109.5465 C113.8599,108.9595 114.2079,108.6355 114.8259,108.5715 L115.9619,108.5715 C116.5479,108.6505 116.8959,108.9745 117.0039,109.5465 L117.0039,110.5415 C116.6479,113.6325 114.9409,115.3175 111.8819,115.5945 C108.7609,115.3475 107.0759,113.6625 106.8289,110.5415 L106.8289,103.0325 C107.0619,99.9115 108.7459,98.1905 111.8819,97.8645 C114.9729,98.1905 116.6799,99.9115 117.0039,103.0325 L117.0039,104.0075 Z M124.3082,97.8651 C127.4152,98.1741 129.1222,99.8811 129.4312,102.9881 L129.4312,110.5421 C129.1072,113.6321 127.3992,115.3171 124.3082,115.5941 C121.2192,115.3011 119.5272,113.6181 119.2332,110.5421 L119.2332,102.9881 C119.4962,99.8811 121.1882,98.1741 124.3082,97.8651 Z M126.3022,110.5641 L126.3022,103.0801 C126.1772,101.8741 125.5142,101.2171 124.3082,101.1091 C123.1042,101.2331 122.4472,101.8901 122.3392,103.0801 L122.3392,110.5641 C122.4472,111.7701 123.1042,112.4131 124.3082,112.4911 C125.5142,112.4131 126.1772,111.7701 126.3022,110.5641 Z M141.9092,114.5748 C141.8942,115.1168 141.6162,115.3868 141.0752,115.3868 L140.9362,115.3868 L140.7512,115.3868 L139.8242,115.3868 L139.7312,115.3868 L139.5932,115.3868 C138.9582,115.4178 138.5182,115.1478 138.2702,114.5748 C137.1122,111.8558 135.9692,109.1368 134.8412,106.4168 L134.8412,112.7448 L134.8412,114.4138 C134.7792,115.0148 134.4552,115.3398 133.8672,115.3868 L132.6852,115.3868 C132.1292,115.3398 131.8202,115.0458 131.7582,114.5058 L131.7582,98.8148 L131.7582,98.7008 C131.7892,98.2348 132.0522,98.0268 132.5462,98.0738 L132.8702,98.0738 L133.7752,98.0738 L134.0072,98.0738 C134.6252,98.0268 135.0812,98.2988 135.3742,98.8838 C136.4862,101.6518 137.6222,104.4008 138.7802,107.1368 L138.7802,99.0478 C138.8432,98.4758 139.1672,98.1518 139.7552,98.0738 L140.9602,98.0738 C141.5002,98.1188 141.8242,98.4128 141.9322,98.9548 L141.9322,103.2868 L141.9322,110.3098 C141.9182,111.7008 141.9092,113.0838 141.9092,114.4588 L141.9092,114.5748 Z M153.4443,98.0494 C154.0153,98.1444 154.3473,98.4764 154.4413,99.0474 L154.4413,100.2524 C154.3473,100.8704 154.0083,101.1954 153.4213,101.2254 L147.9053,101.2254 C147.5963,101.2554 147.4253,101.4274 147.3943,101.7354 L147.3943,104.7254 C147.4253,105.0344 147.5963,105.1954 147.9053,105.2134 L151.4053,105.2134 C151.9753,105.2904 152.2943,105.6064 152.3553,106.1604 L152.3553,107.4134 C152.2943,108.0174 151.9683,108.3254 151.3813,108.3414 L147.9053,108.3414 C147.5963,108.3864 147.4253,108.5664 147.3943,108.8744 L147.3943,111.4454 L147.3943,114.4584 C147.3493,115.0454 147.0323,115.3724 146.4443,115.4334 L145.2623,115.4334 C144.7073,115.4034 144.3973,115.1164 144.3363,114.5744 L144.3363,111.4454 L144.3363,111.1464 L144.3363,100.1134 L144.3363,99.0254 C144.3503,98.4844 144.6213,98.1574 145.1473,98.0494 L153.4443,98.0494 Z M65.6499,46.2135 C66.0919,46.2735 66.3559,46.5125 66.4399,46.9315 L66.4399,47.8645 C66.3559,48.3195 66.0869,48.5705 65.6319,48.6185 L59.3139,48.6185 C58.8589,48.5705 58.6079,48.3195 58.5609,47.8645 L58.5609,46.9315 C58.5609,46.7995 58.5959,46.6795 58.6679,46.5725 C60.4509,44.3225 62.1859,42.0075 63.8729,39.6265 C63.8729,39.3635 63.8789,39.1065 63.8909,38.8545 C63.7119,38.0415 63.2149,37.6045 62.4009,37.5445 C61.4559,37.6285 60.9469,38.1435 60.8759,39.0885 L60.8759,39.7705 C60.8159,40.2245 60.5589,40.4765 60.1039,40.5245 L59.1889,40.5245 C58.7219,40.4635 58.4829,40.2075 58.4709,39.7525 L58.4709,38.9985 C58.6619,36.5815 59.9719,35.2535 62.4009,35.0135 C64.8059,35.2655 66.1219,36.5935 66.3499,38.9985 C66.3379,39.3335 66.3139,39.6625 66.2779,39.9855 C66.1099,40.4405 65.8709,40.8465 65.5599,41.2055 C64.3519,42.8805 63.1309,44.5505 61.8989,46.2135 L65.6499,46.2135 Z M72.1826,35.0143 C74.5876,35.2653 75.9096,36.5933 76.1496,38.9983 L76.1496,44.8313 C75.9096,47.2363 74.5876,48.5403 72.1826,48.7443 C69.7656,48.5283 68.4496,47.2243 68.2346,44.8313 L68.2346,38.9983 C68.4496,36.5933 69.7656,35.2653 72.1826,35.0143 Z M73.7266,44.8493 L73.7266,39.1063 C73.6306,38.1613 73.1166,37.6403 72.1826,37.5443 C71.2376,37.6523 70.7226,38.1723 70.6396,39.1063 L70.6396,44.8493 C70.7346,45.7823 71.2496,46.2913 72.1826,46.3743 C73.1166,46.2913 73.6306,45.7823 73.7266,44.8493 Z M83.2744,35.8034 L83.2744,36.5394 C83.2504,38.5024 83.2384,40.4644 83.2384,42.4264 L83.2384,47.8644 C83.1904,48.3074 82.9514,48.5584 82.5204,48.6184 L81.5694,48.6184 C81.1384,48.5704 80.8934,48.3374 80.8334,47.9184 L80.8334,38.2804 C80.2594,38.6514 79.6724,39.0104 79.0744,39.3574 C78.8954,39.5004 78.7034,39.5844 78.5004,39.6084 C78.1774,39.5254 78.0154,39.3094 78.0154,38.9624 L78.0154,37.8134 C77.9674,37.3354 78.1704,36.9824 78.6264,36.7554 C78.8414,36.6234 79.0564,36.4854 79.2724,36.3424 C79.7144,36.0784 80.1514,35.8034 80.5824,35.5164 C80.7494,35.4084 80.9174,35.3134 81.0844,35.2294 C81.2284,35.0974 81.4074,35.0324 81.6234,35.0324 L82.5204,35.0324 C82.9514,35.1034 83.2024,35.3614 83.2744,35.8034 Z M93.3968,39.0704 L93.3968,42.2824 L93.3968,44.2394 L93.3968,45.0464 C93.2408,46.3394 92.6368,47.3624 91.5848,48.1154 C90.2678,48.8814 88.9218,48.9294 87.5458,48.2594 C86.2418,47.4934 85.5718,46.3444 85.5358,44.8134 L85.5358,44.5624 C85.5598,44.0954 85.7928,43.8324 86.2358,43.7724 L87.1698,43.7724 C87.5998,43.8324 87.8508,44.0954 87.9228,44.5624 L87.9228,44.7414 C87.9108,44.8134 87.9168,44.8854 87.9408,44.9574 C88.1088,45.7224 88.5808,46.1534 89.3588,46.2494 C90.1728,46.2254 90.6928,45.8244 90.9208,45.0464 C90.9438,44.8434 90.9498,44.6224 90.9378,44.3824 L90.9378,42.6954 C90.4718,42.9234 89.9868,43.0244 89.4848,43.0004 L89.4658,43.0004 L89.4128,43.0004 L89.3948,43.0004 C89.2028,43.0004 89.0238,42.9894 88.8568,42.9654 C88.4138,42.8924 87.9948,42.7554 87.5998,42.5514 C87.1928,42.3604 86.8458,42.0914 86.5588,41.7444 C85.9248,41.0504 85.5838,40.2304 85.5358,39.2854 C85.5238,39.2134 85.5238,39.1354 85.5358,39.0524 L85.5358,39.0704 L85.5358,38.9084 L85.5358,39.0344 C85.5238,38.9384 85.5238,38.8484 85.5358,38.7644 C85.5358,38.5614 85.5598,38.3584 85.6078,38.1554 C85.8108,37.2694 86.2658,36.5274 86.9718,35.9294 C87.3068,35.6424 87.6838,35.4274 88.1028,35.2834 C88.5328,35.1034 88.9638,35.0134 89.3948,35.0134 L89.4128,35.0134 L89.4658,35.0134 C89.6098,35.0614 89.7598,35.0974 89.9148,35.1214 C90.3458,35.1694 90.7648,35.2834 91.1718,35.4624 C91.5538,35.6544 91.9128,35.9114 92.2488,36.2344 C92.8708,36.9164 93.2298,37.7304 93.3248,38.6754 L93.3968,38.6754 L93.3968,39.0344 L93.3968,38.9084 L93.3968,39.0704 L93.3968,39.0524 L93.3968,39.0704 Z M89.7358,40.7394 C89.9148,40.7154 90.1068,40.6494 90.3098,40.5414 C90.6928,40.2904 90.8958,39.9264 90.9208,39.4474 C90.9318,39.2554 90.9378,39.0584 90.9378,38.8544 C90.9378,38.6874 90.9208,38.5194 90.8838,38.3524 C90.8368,38.1004 90.7048,37.8794 90.4898,37.6884 C90.2498,37.4854 89.9988,37.3594 89.7358,37.3114 C89.6278,37.3114 89.5208,37.3054 89.4128,37.2934 C89.3168,37.3054 89.2208,37.3114 89.1258,37.3114 C88.8978,37.3354 88.6828,37.4194 88.4798,37.5624 C88.2998,37.6944 88.1618,37.8614 88.0668,38.0654 C87.9468,38.3404 87.9048,38.6214 87.9408,38.9084 C87.9168,39.1834 87.9288,39.4474 87.9768,39.6984 C88.0248,39.9854 88.1618,40.2134 88.3898,40.3804 C88.6048,40.5724 88.8498,40.6914 89.1258,40.7394 C89.2208,40.7514 89.3168,40.7574 89.4128,40.7574 C89.5208,40.7574 89.6278,40.7514 89.7358,40.7394 Z" id="Lettering" fill="#FEFEFE"></path>
            </g>
        </g>
    </g>
</svg>