<?xml version="1.0" encoding="utf-8"?>
<!-- Generator: Adobe Illustrator 18.0.0, SVG Export Plug-In . SVG Version: 6.00 Build 0)  -->
<!DOCTYPE svg PUBLIC "-//W3C//DTD SVG 1.1//EN" "http://www.w3.org/Graphics/SVG/1.1/DTD/svg11.dtd">
<svg version="1.1" xmlns="http://www.w3.org/2000/svg" xmlns:xlink="http://www.w3.org/1999/xlink" x="0px" y="0px"
	 viewBox="0 0 378 152" enable-background="new 0 0 378 152" xml:space="preserve">
<g id="work" display="none">
	<g id="logotype" display="inline">
		<g id="logotype_original">
		</g>
		<g id="k_development">
		</g>
		<g id="r_development">
		</g>
		<g id="e_development">
		</g>
	</g>
	<g id="logo_v1" display="inline">
	</g>
	<g id="logo_v2" display="inline">
	</g>
	<g id="logo_v3__x28_stroke_x29_" display="inline">
		<g id="logo-8pt-stroke">
		</g>
		<g id="logo-9pt-stroke">
		</g>
		<g id="logo-9pt-expanded">
		</g>
	</g>
</g>
<g id="purple">
	<g id="logotype_horizontal">
		<g>
			<path fill="#430098" d="M100.8,36H43.2c-4,0-7.2,3.2-7.2,7.2v65.6c0,4,3.2,7.2,7.2,7.2h57.6c4,0,7.2-3.2,7.2-7.2V43.2
				C108,39.2,104.8,36,100.8,36z M104,108.8c0,1.8-1.4,3.2-3.2,3.2H43.2c-1.8,0-3.2-1.4-3.2-3.2V43.2c0-1.8,1.4-3.2,3.2-3.2h57.6
				c1.8,0,3.2,1.4,3.2,3.2V108.8z"/>
			<polygon fill="#430098" points="54,104 63,96 54,88 			"/>
			<path fill="#430098" d="M86.5,71.6C84.9,69.9,81.9,68,77,68c-5.4,0-11,1.4-15,2.7V48h-8v34.7l5.7-2.6c0.1,0,9.2-4.1,17.3-4.1
				c4.1,0,5,2.2,5,4.1V104h8l0-24C90,79.5,90,75.1,86.5,71.6z"/>
			<path fill="#430098" d="M76,61h8c3.6-4.1,5.5-8.5,6-13h-8C81.1,52.5,79.1,56.9,76,61z"/>
		</g>
		<g>
			<path fill="#430098" d="M148,64.1c-4.5,0-10.2,1.2-14,2.7V48h-8v56h8V73.6c3.9-1.8,9.4-2.7,12.9-2.7c1.7,0,3.2,0.9,3.2,3V104h7.9
				V75C158,68.7,155.3,64.1,148,64.1z"/>
			<path fill="#430098" d="M182.1,64c-6.7,0-12.1,0.8-16.1,2.4c-1.5,5.5-2,11.1-2,17.7c0,12.1,2.1,19.9,15.4,19.9
				c6.2,0,11.4-1.9,15.7-3.9l-1.3-6.2c-4,1.6-9.2,3.2-13.8,3.2c-5.9,0-7.7-1.2-8-11H196v-4.2C196,70.8,192.4,64,182.1,64z M172,80
				c0.1-4.2,0.7-8.3,0.7-8.3s4-0.8,9.4-0.8s6.9,3.4,6.9,9.1H172z"/>
			<path fill="#430098" d="M334,64l0,30c0,0-5.6,3-13,3c-1.7,0-3-0.7-3-2.8V64h-8v29.2c0,6.3,3.3,10.8,10,10.8c11.6,0,22-6,22-6V64
				H334z"/>
			<path fill="#430098" d="M246,64c-10.6,0-18,5.6-18,20.2c0,13.8,5.6,19.8,18,19.8c10.6,0,18-5.6,18-20.2C264,70,258.4,64,246,64z
				 M246,98c-6.7,0-9.9-4.4-9.9-14.1c0-10.2,4.2-13.9,9.9-13.9c6.7,0,9.9,4.4,9.9,14.1C255.9,94.3,251.7,98,246,98z"/>
			<path fill="#430098" d="M202,104h8V74c2.9-1.6,7.7-2.9,14-3l0-6.9c-12.7,0-22,5.9-22,5.9V104z"/>
			<path fill="#430098" d="M290.5,82.7c5.2-6.8,9.5-13.1,11.9-18.7l-8.3,0c-2.8,5.9-6.2,11.3-10.1,16h-6V48h-8v56h8V86h6
				c3.9,4.8,7.7,10.6,11.6,18l8.4,0C300.2,96.4,295.9,89.2,290.5,82.7z"/>
		</g>
	</g>
</g>
<g id="white">
</g>
<g id="black">
</g>
<g id="guides" display="none">
	
		<text transform="matrix(1 0 0 1 351.1082 22.0186)" display="inline" fill="#8DC63F" font-family="'BentonSans-Light'" font-size="8">50%</text>
	<g display="inline">
		<g>
			<line fill="none" stroke="#C3C3C4" stroke-miterlimit="10" x1="108.5" y1="72" x2="125.5" y2="72"/>
			<g>
				<rect x="108" y="68.8" fill="#C3C3C4" width="1" height="6.5"/>
			</g>
			<g>
				<rect x="125" y="68.8" fill="#C3C3C4" width="1" height="6.5"/>
			</g>
		</g>
	</g>
	
		<line display="inline" fill="none" stroke="#C3C3C4" stroke-width="0.25" stroke-miterlimit="10" x1="342" y1="36" x2="342" y2="152"/>
	
		<text transform="matrix(1 0 0 1 108.6201 84.5192)" display="inline" fill="#C3C3C4" font-family="'BentonSans-Light'" font-size="8">25%</text>
	
		<text transform="matrix(1 0 0 1 222.7722 128.6803)" display="inline" fill="#C3C3C4" font-family="'BentonSans-Light'" font-size="8">300%</text>
	
		<line display="inline" fill="none" stroke="#C3C3C4" stroke-width="0.25" stroke-miterlimit="10" x1="0" y1="116" x2="378" y2="116"/>
	
		<line display="inline" fill="none" stroke="#C3C3C4" stroke-width="0.25" stroke-miterlimit="10" x1="36" y1="0" x2="36" y2="152"/>
	
		<line display="inline" fill="none" stroke="#C3C3C4" stroke-width="0.25" stroke-miterlimit="10" x1="108" y1="0" x2="108" y2="152"/>
	
		<line display="inline" fill="none" stroke="#C3C3C4" stroke-width="0.25" stroke-miterlimit="10" x1="126" y1="0" x2="126" y2="152"/>
	
		<line display="inline" fill="none" stroke="#C3C3C4" stroke-width="0.25" stroke-miterlimit="10" x1="0" y1="36" x2="342" y2="36"/>
	<g display="inline">
		<g>
			<polyline fill="none" stroke="#8DC63F" stroke-miterlimit="10" points="342,1.1 342,36 376.9,36 			"/>
			<g>
				<polygon fill="#8DC63F" points="337.9,4.4 338.6,5.1 342,1.5 345.4,5.1 346.1,4.4 342,0 				"/>
			</g>
			<g>
				<polygon fill="#8DC63F" points="373.6,40.1 372.9,39.4 376.5,36 372.9,32.6 373.6,31.9 378,36 				"/>
			</g>
		</g>
	</g>
	<g display="inline">
		<g>
			<line fill="none" stroke="#C3C3C4" stroke-miterlimit="10" x1="126.5" y1="116" x2="341.5" y2="116"/>
			<g>
				<rect x="126" y="112.8" fill="#C3C3C4" width="1" height="6.5"/>
			</g>
			<g>
				<rect x="341" y="112.8" fill="#C3C3C4" width="1" height="6.5"/>
			</g>
		</g>
	</g>
</g>
</svg>
