<svg width="420" height="206" viewBox="0 0 420 206" fill="none" xmlns="http://www.w3.org/2000/svg">
<path d="M20 74.6799H25.7238L35.5816 94.6799L45.4393 74.6799H51.1632L35.5816 104.76L20 74.6799Z" fill="#0082B4"/>
<path d="M50.0502 89.4C50.0113 87.3721 50.3795 85.3572 51.1328 83.476C51.8861 81.5947 53.009 79.8858 54.4342 78.4516C55.8594 77.0175 57.5575 75.8875 59.427 75.1295C61.2964 74.3714 63.2987 74.0008 65.3138 74.04C67.3325 73.9872 69.3409 74.3484 71.2164 75.1016C73.0919 75.8548 74.7956 76.9843 76.2235 78.4213C77.6514 79.8582 78.774 81.5726 79.5223 83.4601C80.2709 85.3475 80.6299 87.3685 80.5774 89.4C80.6162 91.4279 80.248 93.4428 79.4947 95.324C78.7414 97.2052 77.6185 98.9141 76.1935 100.348C74.7682 101.782 73.07 102.912 71.2007 103.67C69.3312 104.429 67.329 104.799 65.3138 104.76C63.295 104.813 61.2867 104.452 59.4112 103.698C57.5356 102.945 55.8319 101.816 54.404 100.379C52.9761 98.9416 51.8537 97.2272 51.1052 95.3399C50.3567 93.4525 49.9977 91.4314 50.0502 89.4ZM75.3306 89.4C75.3306 83.48 71.3557 78.84 65.3138 78.84C59.2719 78.84 55.2971 83.48 55.2971 89.4C55.2302 90.764 55.4399 92.1276 55.9134 93.4076C56.387 94.6876 57.1145 95.857 58.0516 96.845C58.9887 97.8328 60.1158 98.6186 61.3643 99.1541C62.6128 99.6896 63.9566 99.9639 65.3138 99.96C71.3557 99.96 75.3306 95.32 75.3306 89.4Z" fill="#0082B4"/>
<path d="M83.7571 89.4C83.7041 87.4088 84.0469 85.4269 84.7653 83.5708C85.4836 81.7146 86.5631 80.0215 87.9404 78.5908C89.3178 77.16 90.9651 76.0205 92.7859 75.2391C94.6067 74.4576 96.5643 74.05 98.5437 74.04C106.811 74.04 112.853 79.96 112.853 90.52H89.004C89.1731 93.0357 90.285 95.3932 92.1148 97.1157C93.9446 98.8383 96.356 99.7976 98.8617 99.8C102.072 99.8098 105.158 98.545 107.447 96.28L110.627 99.8C109.07 101.376 107.208 102.614 105.158 103.44C103.107 104.265 100.911 104.66 98.7027 104.6C96.7162 104.638 94.7428 104.269 92.9021 103.517C91.0614 102.764 89.3917 101.643 87.9943 100.222C86.5968 98.8005 85.5007 97.1085 84.7724 95.2484C84.044 93.3882 83.6986 91.3986 83.7571 89.4ZM89.3219 86.2H107.288C107.048 84.0486 105.983 82.0763 104.32 80.7021C102.658 79.3279 100.529 78.6599 98.3847 78.84C96.2547 78.7966 94.1779 79.5111 92.52 80.8575C90.8621 82.2038 89.7296 84.0958 89.3219 86.2Z" fill="#0082B4"/>
<path d="M114.603 98.8399L118.736 96.1199C119.539 97.4218 120.665 98.4904 122.003 99.22C123.342 99.9496 124.846 100.315 126.368 100.28C129.548 100.28 132.569 98.8399 132.569 96.5999C132.569 94.3599 130.661 93.0799 126.686 91.7999L124.142 90.8399C118.259 88.9199 116.351 85.5599 116.351 82.0399C116.351 77.5599 120.644 74.1999 126.686 74.1999C128.651 74.0957 130.607 74.5321 132.344 75.4624C134.08 76.3927 135.533 77.7816 136.544 79.4799L132.251 81.7199C131.655 80.7441 130.809 79.9472 129.802 79.4124C128.795 78.8777 127.664 78.6247 126.527 78.6799C123.983 78.6799 121.598 79.7999 121.598 81.8799C121.598 83.9599 122.87 85.0799 126.686 86.3599L129.389 87.3199C134.954 89.2399 137.975 91.7999 137.975 96.2799C137.975 101.08 133.523 104.76 126.209 104.76C123.935 104.843 121.676 104.344 119.646 103.308C117.616 102.273 115.88 100.735 114.603 98.8399Z" fill="#0082B4"/>
<path d="M137.975 74.68H143.858V68.28L148.787 65.72V74.68H157.69L156.577 79.32H148.787V95C148.787 98.04 149.9 99.8 153.079 99.8H157.054V104.44H152.602C146.879 104.44 143.699 101.4 143.699 95.8V79.32H138.929L137.975 74.68Z" fill="#0082B4"/>
<path d="M182.812 101.24C180.208 103.493 176.864 104.691 173.431 104.6C171.424 104.638 169.43 104.265 167.57 103.504C165.71 102.744 164.022 101.611 162.61 100.175C161.198 98.7388 160.09 97.0292 159.354 95.1496C158.617 93.27 158.268 91.2596 158.326 89.24C158.268 87.2205 158.617 85.2101 159.354 83.3305C160.09 81.4509 161.198 79.7412 162.61 78.3052C164.022 76.8691 165.71 75.7364 167.57 74.9758C169.43 74.2151 171.424 73.8424 173.431 73.88C176.864 73.7894 180.208 74.9871 182.812 77.24V74.68H187.9V104.28H182.812V101.24ZM182.812 95.16V83.8C181.793 82.2908 180.416 81.0613 178.806 80.2231C177.195 79.3849 175.403 78.9645 173.59 79C167.866 79 163.732 83.64 163.732 89.56C163.732 95.48 167.866 100.12 173.59 100.12C175.409 100.092 177.194 99.6277 178.798 98.765C180.402 97.9023 181.778 96.6663 182.812 95.16Z" fill="#0082B4"/>
<path d="M199.665 63H194.577V104.28H199.665V63Z" fill="#0082B4"/>
<path d="M206.343 74.6799H211.431V77.7199C214.021 75.4435 217.374 74.2425 220.812 74.3599C222.815 74.3358 224.803 74.7178 226.657 75.4832C228.511 76.2486 230.193 77.3817 231.602 78.815C233.012 80.2483 234.12 81.9525 234.861 83.826C235.602 85.6995 235.961 87.7039 235.916 89.7199C235.975 91.7394 235.625 93.75 234.889 95.6295C234.152 97.509 233.045 99.2188 231.632 100.655C230.22 102.091 228.533 103.224 226.673 103.984C224.813 104.745 222.819 105.118 220.812 105.08C217.374 105.197 214.021 103.996 211.431 101.72V116.44H206.343V74.6799ZM211.431 83.7999V95.1599C212.436 96.6829 213.81 97.9229 215.423 98.7629C217.037 99.6028 218.837 100.015 220.653 99.9599C226.376 99.9599 230.51 95.3199 230.51 89.3999C230.51 83.4799 226.376 78.8399 220.653 78.8399C218.82 78.7929 217.007 79.2252 215.391 80.0946C213.775 80.964 212.41 82.2407 211.431 83.7999Z" fill="#0082B4"/>
<path d="M245.615 74.6799H240.527V104.28H245.615V74.6799Z" fill="#0082B4"/>
<path d="M252.293 74.6801H257.381V78.0401C258.515 76.7219 259.939 75.6883 261.54 75.0217C263.141 74.355 264.875 74.0737 266.603 74.2001C273.28 74.2001 278.05 78.8401 278.05 86.2001V104.28H272.803V86.5201C272.859 85.518 272.703 84.5155 272.347 83.5779C271.991 82.6404 271.443 81.789 270.737 81.0793C270.032 80.3696 269.186 79.8176 268.254 79.4593C267.323 79.1011 266.326 78.9446 265.331 79.0001C263.477 78.8864 261.647 79.4577 260.183 80.6068C258.719 81.756 257.722 83.4036 257.381 85.2401V104.44H252.293V74.6801Z" fill="#0082B4"/>
<path d="M282.344 89.4C282.291 87.4088 282.634 85.4269 283.352 83.5708C284.07 81.7146 285.15 80.0215 286.527 78.5908C287.904 77.16 289.552 76.0205 291.373 75.2391C293.193 74.4576 295.151 74.05 297.13 74.04C305.398 74.04 311.44 79.96 311.44 90.52H287.432C287.601 93.0357 288.713 95.3932 290.542 97.1157C292.372 98.8383 294.784 99.7976 297.289 99.8C300.5 99.8098 303.585 98.545 305.875 96.28L309.055 99.8C307.497 101.376 305.636 102.614 303.585 103.44C301.535 104.265 299.338 104.66 297.13 104.6C288.704 104.76 282.344 98.04 282.344 89.4ZM287.909 86.2H305.875C305.634 84.0486 304.57 82.0763 302.907 80.7021C301.245 79.3279 299.115 78.6599 296.971 78.84C294.841 78.7966 292.764 79.5111 291.107 80.8575C289.449 82.2038 288.316 84.0958 287.909 86.2Z" fill="#0082B4"/>
<path d="M206.025 134.84C206.025 130.68 209.682 127.64 214.134 127.64C218.586 127.64 222.243 130.84 222.243 134.84C222.243 138.84 218.586 142.04 214.134 142.04C209.682 142.04 206.025 139 206.025 134.84ZM220.971 134.84C220.93 133.999 220.725 133.175 220.367 132.414C220.009 131.653 219.506 130.97 218.885 130.406C218.265 129.841 217.54 129.405 216.752 129.122C215.964 128.84 215.128 128.717 214.293 128.76C213.453 128.694 212.608 128.802 211.81 129.076C211.013 129.35 210.279 129.785 209.654 130.354C209.029 130.923 208.526 131.614 208.175 132.386C207.825 133.157 207.634 133.992 207.615 134.84C207.656 135.681 207.861 136.505 208.219 137.266C208.577 138.027 209.08 138.709 209.7 139.274C210.321 139.839 211.046 140.275 211.834 140.557C212.622 140.84 213.457 140.963 214.293 140.92C215.133 140.985 215.978 140.878 216.775 140.604C217.573 140.33 218.307 139.895 218.932 139.326C219.557 138.757 220.06 138.065 220.41 137.294C220.761 136.523 220.952 135.688 220.971 134.84Z" fill="#A5A5A5"/>
<path d="M227.331 130.68V141.88H225.9V127.64L238.142 139V127.8H239.573V142.04L227.331 130.68Z" fill="#A5A5A5"/>
<path d="M244.343 127.8H253.565V128.92H245.774V134.04H252.134V135.16H245.774V140.6H253.565V141.72H244.343V127.8Z" fill="#A5A5A5"/>
<path d="M262.628 140.12L263.741 139.32C264.811 140.349 266.235 140.922 267.716 140.92C269.942 140.92 271.531 139.96 271.531 138.52C271.531 137.08 270.418 136.28 268.511 135.48L266.762 134.84C264.218 133.88 263.264 132.76 263.264 131C263.264 128.92 265.649 127.64 267.875 127.64C269.571 127.654 271.206 128.278 272.485 129.4L271.372 130.2C270.896 129.717 270.324 129.34 269.695 129.092C269.065 128.844 268.391 128.731 267.716 128.76C265.967 128.76 264.536 129.56 264.536 131C264.536 132.12 265.172 132.92 267.08 133.72L268.829 134.36C271.054 135.16 272.803 136.28 272.803 138.36C272.803 140.44 270.895 142.2 267.557 142.2C265.724 142.1 263.983 141.365 262.628 140.12Z" fill="#A5A5A5"/>
<path d="M278.845 128.92H274.234V127.8H285.046V128.92H280.435V141.88H279.004V128.92H278.845Z" fill="#A5A5A5"/>
<path d="M287.431 127.8H296.653V128.92H288.862V134.04H295.222V135.16H288.862V140.6H296.653V141.72H287.431V127.8Z" fill="#A5A5A5"/>
<path d="M300.31 127.8H304.602C308.1 127.8 310.326 129.24 310.326 131.96C310.326 134.68 308.259 136.12 304.602 136.12H301.741V142.04H300.31V127.8ZM304.602 135C307.464 135 308.736 133.88 308.736 131.96C308.736 130.04 307.305 128.92 304.602 128.92H301.741V134.84H304.602V135Z" fill="#A5A5A5"/>
<path d="M324.159 127.64L332.109 141.88H330.678L328.293 137.56H320.184L317.799 141.88H316.368L324.159 127.64ZM320.82 136.44H327.498L324.159 130.36L320.82 136.44Z" fill="#A5A5A5"/>
<path d="M334.494 127.8H335.925V134.04H346.1V127.8H347.531V141.88H346.1V135.16H335.925V141.88H334.494V127.8Z" fill="#A5A5A5"/>
<path d="M352.142 127.8H361.364V128.92H353.573V134.04H359.933V135.16H353.573V140.6H361.364V141.72H352.142V127.8Z" fill="#A5A5A5"/>
<path d="M370.904 127.64L378.854 141.88H377.423L375.038 137.56H366.929L364.544 141.88H363.113L370.904 127.64ZM367.565 136.44H374.402L371.063 130.36L367.565 136.44Z" fill="#A5A5A5"/>
<path d="M381.079 127.8H385.69C390.937 127.8 394.594 130.84 394.594 134.84C394.594 138.84 390.937 141.88 385.69 141.88H381.079V127.8ZM385.531 140.76C389.983 140.76 393.004 138.36 393.004 134.84C393.004 131.32 390.142 128.92 385.531 128.92H382.351V140.76H385.531Z" fill="#A5A5A5"/>
<path d="M395.707 140.92C395.739 140.563 395.905 140.233 396.171 139.995C396.437 139.757 396.783 139.63 397.138 139.64C397.317 139.622 397.498 139.642 397.669 139.698C397.84 139.754 397.997 139.845 398.132 139.965C398.266 140.085 398.374 140.232 398.45 140.396C398.525 140.561 398.566 140.739 398.569 140.92C398.487 141.239 398.301 141.521 398.042 141.722C397.783 141.924 397.465 142.033 397.138 142.033C396.811 142.033 396.493 141.924 396.234 141.722C395.975 141.521 395.789 141.239 395.707 140.92Z" fill="#A5A5A5"/>
</svg>
