<?xml version="1.0" encoding="UTF-8" standalone="no"?>
<svg width="16px" height="16px" viewBox="0 0 16 16" version="1.1" xmlns="http://www.w3.org/2000/svg" xmlns:xlink="http://www.w3.org/1999/xlink">
    <defs></defs>
    <g id="Page-1" stroke="none" stroke-width="1" fill="none" fill-rule="evenodd">
        <path d="M1.92808605,6.26491139 C1.92808605,3.86936709 3.87034921,1.92749367 6.26425437,1.92749367 C8.66018483,1.92749367 10.7948515,4.06217722 10.7948515,6.45772152 C10.7948515,8.85306329 8.85258838,10.7951392 6.45665791,10.7951392 C4.06275275,10.7951392 1.92808605,8.66065823 1.92808605,6.26491139 L1.92808605,6.26491139 Z M15.6393703,13.5364051 L11.8135777,9.70977215 C12.3907883,8.76192405 12.7229376,7.64860759 12.7229376,6.45772152 C12.7229376,2.99787342 9.72549288,0 6.26425437,0 C2.80504116,0 0,2.80486076 0,6.26491139 C0,9.72496203 2.9974447,12.7226329 6.45665791,12.7226329 C7.60702858,12.7226329 8.68448844,12.4111392 9.61207605,11.8699747 L13.460147,15.7174684 C13.8348275,16.0941772 14.4464683,16.0941772 14.8231742,15.7174684 L15.7770907,14.7635443 C16.1537966,14.3868354 16.0160762,13.9129114 15.6393703,13.5364051 L15.6393703,13.5364051 Z" id="Fill-93" fill="#FAAA8E"></path>
    </g>
</svg>