<?xml version="1.0" encoding="utf-8"?>
<!-- Generator: Adobe Illustrator 17.1.0, SVG Export Plug-In . SVG Version: 6.00 Build 0)  -->
<!DOCTYPE svg PUBLIC "-//W3C//DTD SVG 1.1//EN" "http://www.w3.org/Graphics/SVG/1.1/DTD/svg11.dtd">
<svg version="1.1" id="Layer_1" xmlns="http://www.w3.org/2000/svg" xmlns:xlink="http://www.w3.org/1999/xlink" x="0px" y="0px"
	 viewBox="0 0 590.2 143.8" enable-background="new 0 0 590.2 143.8" xml:space="preserve">
<path fill="#414042" d="M118.7,77.8h-1.3c-7.7,0-14,6.4-14,14.3c0,1.1,0.2,2.3,0.4,3.2C111.4,92.6,117,85.9,118.7,77.8z M122.5,72.6
	c0,0.6,0,1.3-0.1,1.9h0.1h7.7c0.6-3.8,0.8-7.8,0.4-11.8h-9.9C121.9,65.8,122.5,69.2,122.5,72.6z M125.7,93.8c5.2-2,13-6.5,15.7-16
	h-8.4C131.3,85.1,128.2,90.4,125.7,93.8z M87.1,95.3c0.2-0.9,0.4-2.1,0.4-3.2c0-7.9-6.3-14.3-14-14.3h-1.3
	C73.9,85.9,79.5,92.6,87.1,95.3z M95.5,70.9c4.1-10.9,14.6-11.5,19.9-11.5c-4.4-6.8-11.8-11-19.9-11c-8.1,0-15.6,4.1-19.9,11
	C80.9,59.4,91.4,60,95.5,70.9z M65.2,93.8c-2.5-3.4-5.5-8.7-7.2-16h-8.4C52.3,87.2,60,91.7,65.2,93.8z M68.5,74.5
	c0-0.6-0.1-1.3-0.1-1.9c0-3.4,0.6-6.8,1.8-9.9h-9.9c-0.4,4.1-0.2,8,0.4,11.8H68.5L68.5,74.5z M61.4,77.8c2.9,11.7,9.7,17.8,9.8,17.9
	l4.2,3.7l-5.6-0.9c-0.2,0-20.3-3.4-24-22.1l-0.4-2h11.9c-0.7-4.4-0.7-9-0.2-13.7l0.2-1.5h14.4c4.8-8.8,13.8-14.3,23.7-14.3
	c10,0,19,5.4,23.7,14.3h14.4l0.2,1.5c0.5,4.7,0.5,9.3-0.2,13.7h11.9l-0.4,2c-3.7,18.6-23.8,22-24,22.1l-5.6,0.9l4.3-3.8
	c0.1-0.1,6.9-6.2,9.8-17.9h-7.5c-1.9,10.2-9.2,18.4-19,21.2l-1.5,0.4l-0.5-1.5c0-0.1-1-3.1-1-5.8c0-9.7,7.8-17.6,17.3-17.6h1.7
	c0-0.6,0.1-1.3,0.1-1.9c0-3.5-0.7-6.8-2.1-9.9h-0.9c-9.5,0-19.1,2.2-19.1,18.8h-3.3c0-16.5-9.7-18.8-19.1-18.8h-0.9
	c-1.4,3.1-2.1,6.5-2.1,9.9c0,0.6,0,1.3,0.1,1.9h1.7c9.5,0,17.3,7.9,17.3,17.6c0,2.7-0.9,5.7-1,5.8l-0.5,1.5L87.8,99
	c-9.8-2.8-17.1-11-19-21.2H61.4z"/>
<g>
	<path fill="#414042" d="M187.1,90c3.5,0,7-0.7,10.1-2V93c-3.4,1.3-7,2-10.7,2c-7.8,0-17-3.2-17-18.7c0-15.4,9.2-18.7,17-18.7
		c3.7,0,7.3,0.7,10.7,2v5c-3.2-1.3-6.6-2-10.1-2c-8.6,0-12.3,4.1-12.3,13.7C174.8,85.9,178.5,90,187.1,90z"/>
	<path fill="#414042" d="M236.9,76.3c0,15.4-9.3,18.7-17,18.7c-7.8,0-16.9-3.3-16.9-18.7c0-15.4,9.2-18.7,16.9-18.7
		C227.7,57.6,236.9,60.9,236.9,76.3z M231.7,76.3c0-9.7-3.5-13.9-11.8-13.9c-8.2,0-11.7,4.2-11.7,13.9s3.5,13.9,11.7,13.9
		C228.2,90.2,231.7,86,231.7,76.3z"/>
	<path fill="#414042" d="M260.6,57.7c3.1,0,6.1,0.4,9,1.4V48.5h5.2v35.1c0,2.7-1.1,11.4-14.8,11.4C254,95,244,92.5,244,75.8
		C244,60.8,253,57.7,260.6,57.7z M259.9,90.2c6.4,0,9.6-2.1,9.6-6.4V64.3c-2.8-1.2-5.9-1.8-9-1.8c-7.9,0-11.3,4.1-11.3,13.4
		C249.3,88.7,255.3,90.2,259.9,90.2z"/>
	<path fill="#414042" d="M315.1,76.9c0,1.4-0.1,2.5-0.1,2.5h-26.4c0.7,7.2,4.3,10.4,11.7,10.4c5.3,0,9.3-0.9,12.4-2.7v5.4
		c-3.5,1.7-7.8,2.5-12.9,2.5c-7.5,0-16.5-3.1-16.5-18.2c0-3.8-0.6-19.2,15.9-19.2C315.6,57.6,315.1,75.5,315.1,76.9z M309.7,74.8
		c0-1.7-0.6-12.2-10.6-12.2c-7.1,0-10.1,3.3-10.6,12.2H309.7z"/>
	<path fill="#414042" d="M377.5,72.7v10.9c0,10-10.1,11.4-14.8,11.4c-4.7,0-15.1-1.4-15.1-11.7c0-12,15.6-11.9,18.9-11.9
		c3.3,0,5.8,0.4,5.8,0.4c0-6.8-4.1-9-10.6-9c-5.2,0-9.2,1.2-10.6,1.7v-5.1c2.7-0.9,6.4-1.9,10.9-1.9C372,57.6,377.5,62.8,377.5,72.7
		z M372.3,76.6c0,0-2.4-0.4-6.4-0.4c-4.3,0-13.1,0.5-13.1,7.2c0,5.7,5.4,6.8,9.9,6.8c4.5,0,9.6-1.1,9.6-6.6
		C372.3,78,372.3,76.6,372.3,76.6z"/>
	<path fill="#414042" d="M387.8,94.4V48.5h5.2v45.9H387.8z"/>
	<path fill="#414042" d="M404.6,94.4V48.5h5.2v45.9H404.6z"/>
	<path fill="#414042" d="M458.8,57.7c3.1,0,6.1,0.4,9,1.4V48.5h5.2v35.1c0,2.7-1.1,11.4-14.9,11.4c-5.9,0-15.9-2.5-15.9-19.1
		C442.2,60.8,451.2,57.7,458.8,57.7z M458.1,90.2c6.4,0,9.6-2.1,9.6-6.4V64.3c-2.8-1.2-5.9-1.8-9-1.8c-7.9,0-11.3,4.1-11.3,13.4
		C447.5,88.7,453.5,90.2,458.1,90.2z"/>
	<path fill="#414042" d="M511.4,72.7v10.9c0,10-10.1,11.4-14.8,11.4c-4.7,0-15.1-1.4-15.1-11.7c0-12,15.6-11.9,18.9-11.9
		c3.3,0,5.8,0.4,5.8,0.4c0-6.8-4.1-9-10.6-9c-5.2,0-9.2,1.2-10.6,1.7v-5.1c2.7-0.9,6.4-1.9,10.9-1.9
		C505.9,57.6,511.4,62.8,511.4,72.7z M506.1,76.6c0,0-2.4-0.4-6.4-0.4c-4.3,0-13.1,0.5-13.1,7.2c0,5.7,5.4,6.8,9.9,6.8
		c4.5,0,9.6-1.1,9.6-6.6C506.1,78,506.1,76.6,506.1,76.6z"/>
	<path fill="#414042" d="M548.4,58.2l-14.8,39.7c-3.2,8.6-8,10.4-11.4,10.4c-1.5,0-2.7-0.4-3.4-0.7v-4.8c0.7,0.3,1.7,0.7,3.1,0.7
		c4.9,0,7.9-9.8,7.9-9.8l-13.3-35.6h5.6l10.3,28.6l10.4-28.6H548.4z"/>
</g>
</svg>
