<svg width="255" height="155" viewBox="0 0 255 155" xmlns="http://www.w3.org/2000/svg"><title>emberconf-2018-logo</title><g fill="none" fill-rule="evenodd"><path fill="#E15D44" d="M154.659.15L.176 60.348l5.99 60.986 171.69 33.16 76.871-37.504-14.333-50.225z"/><path fill="#FEFEFE" d="M188.479 117.827v10.302l46.841-10.302zM117.817 117.827h-47.97l47.97 10.55zM161.824 86.928s-.912-3.234 2.491-9.452c3.404-6.22 6.064-2.82 6.064-2.82s2.904 3.151-.416 7.879c-3.322 4.722-8.14 4.393-8.14 4.393m-26.154 4.475c-3.904 10.201-13.369 6.053-13.369 6.053s-1.08-3.648 1.993-13.846c3.072-10.196 10.296-6.22 10.296-6.22s4.982 3.817 1.08 14.013m-7.059-42.698s5.898-15.338 7.309-7.873c1.408 7.46-12.374 29.68-12.374 29.68.166-4.975 5.065-21.807 5.065-21.807M44.33 86.928c.249-9.867 6.725-14.178 8.968-12.021 2.243 2.154 1.41 6.797-2.824 9.699-4.233 2.902-6.145 2.322-6.145 2.322m178.609-1.639c-.334-3.32-3.321-2.082-3.321-2.082s-4.817 3.725-9.052 3.312c-4.231-.415-2.904-9.87-2.904-9.87s.911-8.663-1.58-9.392c-2.49-.724-5.563 2.261-5.563 2.261s-3.818 4.227-5.647 9.614l-.498.168s.583-9.452-.08-11.61c-.5-1.076-5.067-.993-5.814.914-.747 1.907-4.402 15.173-4.651 20.728 0 0-7.141 6.053-13.368 7.046-6.225.997-7.722-2.902-7.722-2.902s16.938-4.726 16.357-18.24c-.581-13.514-13.658-8.516-15.14-7.405-1.43 1.076-9.077 5.678-11.305 18.426-.076.434-.209 2.329-.209 2.329s-6.559 4.394-10.212 5.555c0 0 10.212-17.166-2.242-24.956-5.648-3.4-10.13 3.73-10.13 3.73s16.855-18.739 13.118-34.572c-1.776-7.54-5.555-8.352-9.021-7.133-5.262 2.075-7.253 5.143-7.253 5.143s-6.809 9.866-8.387 24.542c-1.578 14.673-3.903 32.417-3.903 32.417s-3.238 3.151-6.228 3.313c-2.989.166-1.66-8.871-1.66-8.871s2.325-13.762 2.16-16.081c-.167-2.324-.335-3.567-3.074-4.397-2.739-.828-5.729 2.655-5.729 2.655s-7.887 11.935-8.552 13.763l-.416.747-.414-.497s5.562-16.253.25-16.502c-5.316-.247-8.803 5.805-8.803 5.805s-6.062 10.115-6.312 11.278l-.413-.5s2.489-11.773 1.991-14.676c-.497-2.901-3.237-2.32-3.237-2.32s-3.489-.415-4.402 1.825c-.912 2.236-4.234 17.078-4.65 21.803 0 0-8.717 6.221-14.448 6.301-5.729.083-5.147-3.629-5.147-3.629s21.007-7.177 15.278-21.356c-2.574-3.648-5.565-4.794-9.798-4.712-4.235.084-9.449 2.66-12.854 10.29-1.623 3.642-2.176 7.091-2.507 9.705 0 0-3.72.746-5.713-.91-1.992-1.656-3.039 0-3.039 0s-3.432 3.68-.026 5.009c3.405 1.327 8.708 1.266 8.708 1.266h-.003c.49 3.53 1.908 6.942 6.056 10.088 6.225 4.724 18.182-.103 18.182-.103l4.898-2.573s.164 4.572 3.736 5.229c3.57.654 5.065.032 11.294-15.056 3.651-7.714 3.9-7.28 3.9-7.28l.417-.07s-2.825 14.761-1.745 18.741c1.08 3.98 5.81 3.567 5.81 3.567s2.577.004 4.65-7.292c2.078-7.296 6.063-15.842 6.063-15.842h.499s-1.743 15.596.913 20.4c2.658 4.808 9.55 1.863 9.55 1.863s4.815-2.297 5.563-3.045c0 0 5.716 4.916 13.779 4.04 18.024-3.542 24.433-8.293 24.433-8.293s3.099 7.85 12.687 8.574c10.964.827 16.94-6.045 16.94-6.045s-.082 4.48 3.737 6.057c3.821 1.574 6.393-7.203 6.393-7.203l6.393-17.525h.583s.332 11.374 6.644 13.198c6.307 1.825 14.53-4.312 14.53-4.312s1.993-1.135 1.66-4.45M138.074 121.368c-.127.672-.519 1.063-1.175 1.171h-1.447c-.693-.07-1.084-.454-1.174-1.145v-1.089c-.129-1.365-.875-2.13-2.24-2.292-1.439.162-2.222.927-2.35 2.292v8.752c.128 1.42.911 2.193 2.35 2.32 1.365-.127 2.111-.9 2.24-2.32v-1.17c.09-.691.5-1.073 1.229-1.148h1.339c.69.093 1.1.474 1.228 1.147v1.171c-.42 3.638-2.432 5.62-6.037 5.947-3.678-.291-5.664-2.274-5.955-5.947v-8.836c.274-3.673 2.26-5.698 5.955-6.082 3.643.384 5.655 2.409 6.037 6.082v1.147zM149.033 129.084v-8.807c-.148-1.42-.93-2.193-2.35-2.32-1.42.146-2.194.92-2.321 2.32v8.807c.127 1.419.902 2.176 2.32 2.268 1.422-.092 2.203-.849 2.35-2.268m-2.35-14.944c3.662.363 5.674 2.372 6.038 6.028v8.89c-.381 3.636-2.394 5.62-6.037 5.945-3.641-.345-5.635-2.325-5.982-5.945v-8.89c.31-3.656 2.304-5.665 5.982-6.028M167.427 133.804c-.018.637-.346.955-.983.955h-1.747c-.748.037-1.267-.281-1.56-.955-1.364-3.2-2.711-6.4-4.04-9.6v9.41c-.074.707-.455 1.09-1.148 1.145h-1.394c-.655-.055-1.019-.401-1.092-1.037v-18.599c.036-.548.346-.793.929-.738h1.722c.728-.055 1.265.265 1.61.954 1.311 3.257 2.65 6.492 4.015 9.712v-9.52c.074-.673.456-1.054 1.149-1.146h1.42c.637.053 1.019.4 1.146 1.037v13.363a484.683 484.683 0 0 0-.027 4.882v.137zM181.022 114.357c.673.111 1.064.502 1.175 1.174v1.418c-.111.727-.51 1.11-1.202 1.145h-6.501c-.365.035-.566.238-.603.6v3.519c.037.364.238.553.603.574h4.125c.671.09 1.047.463 1.12 1.115v1.474c-.073.71-.457 1.073-1.149 1.092h-4.096c-.365.053-.566.265-.603.627V133.667c-.053.69-.426 1.075-1.12 1.147h-1.392c-.655-.035-1.02-.373-1.092-1.01V115.505c.017-.637.336-1.022.956-1.15h9.779z"/><path d="M77.642 53.357c.521.07.833.352.932.845V55.3c-.1.535-.416.83-.953.887h-7.446c-.536-.057-.832-.352-.887-.887v-1.098c0-.156.04-.297.126-.423a190.25 190.25 0 0 0 6.134-8.174c0-.31.007-.612.021-.908-.21-.957-.796-1.471-1.756-1.542-1.113.1-1.713.705-1.797 1.817v.803c-.07.534-.374.83-.91.887h-1.078c-.55-.072-.832-.373-.847-.908v-.888c.226-2.844 1.77-4.407 4.632-4.69 2.835.297 4.386 1.86 4.654 4.69-.014.395-.042.782-.084 1.162a4.608 4.608 0 0 1-.847 1.435 570.614 570.614 0 0 1-4.314 5.894h4.42zM87.161 51.751v-6.758c-.113-1.112-.718-1.725-1.82-1.838-1.113.127-1.72.739-1.818 1.838v6.758c.112 1.098.72 1.697 1.819 1.795 1.1-.098 1.706-.697 1.82-1.795m-1.82-11.573c2.834.295 4.392 1.858 4.675 4.688v6.864c-.283 2.83-1.84 4.365-4.675 4.605-2.849-.254-4.4-1.789-4.653-4.605v-6.864c.253-2.83 1.804-4.393 4.653-4.688M98.414 41.106v.866a565.76 565.76 0 0 0-.042 6.928v6.4c-.057.52-.338.816-.846.887h-1.121c-.508-.057-.797-.33-.868-.824V44.021c-.676.437-1.368.86-2.073 1.268a1.326 1.326 0 0 1-.676.295c-.38-.098-.572-.352-.572-.76v-1.352c-.056-.563.183-.978.72-1.245.254-.156.507-.318.762-.486.52-.311 1.036-.635 1.544-.972a6.31 6.31 0 0 1 .591-.338.903.903 0 0 1 .635-.232h1.058c.508.084.803.387.888.907M104.02 51.73c.085 1.029.641 1.62 1.671 1.775 1-.156 1.551-.746 1.65-1.775-.07-1.041-.62-1.64-1.65-1.794-1.03.168-1.586.767-1.67 1.794m1.67-8.68c-1.03.183-1.586.782-1.67 1.795.084 1.042.64 1.64 1.67 1.796 1.03-.142 1.58-.74 1.65-1.796-.099-1.028-.65-1.627-1.65-1.795m4.632 1.795v.02c-.042 1.381-.48 2.592-1.31 3.634.846.901 1.282 1.979 1.31 3.231-.282 2.817-1.826 4.359-4.632 4.626-2.848-.267-4.393-1.809-4.633-4.626 0-1.252.43-2.33 1.29-3.231-.86-1.042-1.29-2.253-1.29-3.633v-.021c.227-2.816 1.77-4.38 4.633-4.689 2.82.31 4.365 1.873 4.632 4.689" fill="#FEFEFE"/></g></svg>